<svg xmlns="http://www.w3.org/2000/svg" viewBox="0 0 456 525"><defs><style>.cls-1{fill:#dbdbdb;}.cls-2{fill:#fff;stroke:#e2e2e2;stroke-miterlimit:10;stroke-width:0.75px;}.cls-3{fill:#e2e2e2;}.cls-4{fill:#33d97f;}.cls-5{fill:#bcbbbc;}.cls-11,.cls-6{font-size:10px;}.cls-11,.cls-6,.cls-7{fill:#3d3939;}.cls-6,.cls-7{font-family:NotoSansCJKkr-Regular-KSCpc-EUC-H, Noto Sans CJK KR;}.cls-7{font-size:11px;}.cls-8{letter-spacing:-0.02em;}.cls-9{letter-spacing:-0.05em;}.cls-10{letter-spacing:-0.01em;}.cls-11{font-family:NotoSansCJKkr-Bold-KSCpc-EUC-H, Noto Sans CJK KR;}</style></defs><g id="Layer_2" data-name="Layer 2"><rect class="cls-1" width="456" height="525"/><path class="cls-2" d="M229.85,32.63C363,32.63,418,114,438,176c8.29,25.71,21,114-8.5,194.76-24.25,66.4-88.81,127.6-199.65,127.6S63.44,440.73,32.56,387.5C5,340,4.07,223.23,19,165,39,87,121.69,32.63,229.85,32.63Z"/><polygon class="cls-3" points="31 169 56 194 27 201 31 169"/><polygon class="cls-3" points="21 203 19 241 23 245 45.33 229.99 21 203"/><polygon class="cls-3" points="24.5 246.5 47.5 231.5 59.04 246.5 35.5 259.5 24.5 246.5"/><polygon class="cls-3" points="28.5 204.5 65.5 195.5 69.87 200 40.5 216.5 28.5 204.5"/><polygon class="cls-3" points="42.5 219.5 71.5 202.5 80.12 211 50.5 229.5 42.5 219.5"/><polygon class="cls-3" points="52.43 231.5 75.5 218.5 86.41 231.5 64.5 243.5 52.43 231.5"/><polygon class="cls-3" points="37.5 261.5 61.31 248.04 72.03 259.5 49.18 275.01 37.5 261.5"/><polygon class="cls-3" points="65.73 245.5 88.5 233.5 100.5 246.5 77.78 259.5 65.73 245.5"/><polygon class="cls-3" points="80.12 261.53 109.07 245.5 116.62 253.51 116.62 263.5 92.5 276.5 80.12 261.53"/><polygon class="cls-3" points="51.5 278.5 75.5 264.5 87.31 278.5 64.5 292.5 51.5 278.5"/><polygon class="cls-3" points="94.82 278.5 116.62 266.09 116.62 286.88 106.5 293.5 94.82 278.5"/><polygon class="cls-3" points="67.5 294.5 89.5 281.5 101.95 294.5 82 307.59 67.5 294.5"/><polygon class="cls-3" points="109.5 296.5 119.5 290.5 143.5 319.5 133.5 324.5 109.5 296.5"/><polygon class="cls-3" points="94.82 307.5 105.72 300.42 128.5 325.5 117.5 331.5 94.82 307.5"/><polygon class="cls-3" points="136.5 327.5 146.5 321.5 164.5 341.5 157.5 348.5 136.5 327.5"/><polygon class="cls-3" points="122.5 337.5 133.5 330.5 150.5 349.36 141.5 357.5 122.5 337.5"/><polygon class="cls-3" points="159.5 320.5 168.5 329.5 177.79 324.5 167.5 315.5 159.5 320.5"/><polygon class="cls-3" points="167.16 331.5 177.79 324.5 193.5 338.5 187.07 348.5 173.5 339.5 167.16 331.5"/><polygon class="cls-3" points="425.5 168.5 429.5 201.5 399.5 193.5 425.5 168.5"/><polygon class="cls-3" points="391.5 195.5 426.5 204.5 414.5 217.02 387.5 200.5 391.5 195.5"/><polygon class="cls-3" points="405.5 228.5 412.5 219.5 384.5 202.5 375.5 211.5 405.5 228.5"/><polygon class="cls-3" points="380.5 218.5 403.5 231.5 392 244.08 370.03 231.29 380.5 218.5"/><polygon class="cls-3" points="366.5 234.5 389.5 246.5 378 259.15 357.02 246.82 366.5 234.5"/><polygon class="cls-3" points="347.5 245.5 376.5 261.5 363.5 276.5 339.5 263.5 338.5 253.5 347.5 245.5"/><polygon class="cls-3" points="338.5 266.68 361.5 278.5 350 292.7 338.5 287.45 338.5 266.68"/><polygon class="cls-3" points="336.5 290.5 347.5 295.5 322.5 323.5 312.5 318.5 336.5 290.5"/><polygon class="cls-3" points="318.5 326.5 299.5 347.5 292.5 340.5 309.5 321.5 318.5 326.5"/><polygon class="cls-3" points="259.5 362.5 280.5 358.5 295.5 350.5 288.5 344.5 273.5 350.5 257.94 353.5 259.5 362.5"/><polygon class="cls-3" points="251.78 362.5 202.93 362.5 202.93 355.02 251.5 355.5 251.78 362.5"/><polygon class="cls-3" points="167.16 345.21 181.5 351.5 197.5 355.5 197.5 362.5 175.76 358.76 160.5 350.5 167.16 345.21"/><polygon class="cls-3" points="191.28 344.5 202.93 347.5 212.51 347.5 212.5 341.5 201.9 341.5 195.5 338.5 191.28 344.5"/><rect class="cls-3" x="215.94" y="343" width="23.97" height="5.5"/><polygon class="cls-3" points="242.88 343 242.88 347.5 253.83 347.5 264.11 344 259.54 338.5 251.5 341.5 242.88 343"/><polygon class="cls-3" points="261.82 336.5 269.13 347.5 279.63 342 288.76 331.5 278.5 325.5 271.5 332.5 261.82 336.5"/><polygon class="cls-3" points="279.5 323.5 286.5 313.5 297.44 318 288.76 328.77 279.5 323.5"/><polygon class="cls-3" points="434.82 202.5 438.5 239.5 434.82 244.08 411.21 231.29 434.82 202.5"/><polygon class="cls-3" points="408.5 235.5 431.97 246.82 420.24 261 397.56 246.82 408.5 235.5"/><polygon class="cls-3" points="394 249.33 417.5 263.5 407 276.5 383.05 262.92 394 249.33"/><polygon class="cls-3" points="379.93 266.68 404.67 279.69 392.3 292.7 367.98 279.69 379.93 266.68"/><polygon class="cls-3" points="365.5 282.5 389.5 294.56 376.5 307 354.5 295.5 365.5 282.5"/><polygon class="cls-3" points="350 300.53 361.5 307 338.5 333.24 327.02 325.5 350 300.53"/><polygon class="cls-3" points="323.5 330.5 333 338.5 315.65 358.76 305.5 350.3 323.5 330.5"/><polygon class="cls-3" points="270.5 374.5 285.5 369.5 288.76 373.1 307.64 362.5 298.94 355.02 286.42 362.5 269.5 367.5 270.5 374.5"/><polygon class="cls-3" points="150.5 362.5 158.76 355.02 173.5 363.5 186.5 366.5 186.5 374.02 171.5 370.5 168.5 374.02 150.5 362.5"/><polygon class="cls-3" points="32.16 294.54 41.77 289.68 53.73 300.42 42.5 307 32.16 294.54"/><polygon class="cls-3" points="44.5 309.5 55.5 303.5 65.73 315.5 55.12 321.5 44.5 309.5"/><polygon class="cls-3" points="57.5 323.5 67.5 318.01 80.12 332.52 69.5 338.5 57.5 323.5"/><polygon class="cls-4" points="28.5 297.28 19 302.35 26.78 336.5 51.5 323.53 28.5 297.28"/><polygon class="cls-3" points="72.03 341.27 82 335 94.82 349.79 84.73 356.24 72.03 341.27"/><polygon class="cls-3" points="87.31 358.76 96.5 352.5 108.77 364.52 99.5 371.5 87.31 358.76"/><polygon class="cls-3" points="101.95 374.02 109.5 367.52 122.5 380.42 114.5 387.5 101.95 374.02"/><polygon class="cls-3" points="115.5 389.5 124.5 382.5 134.5 391.5 126.5 399.5 115.5 389.5"/><polygon class="cls-5" points="74.46 315.96 87.31 307.59 118.73 343 126.5 353.5 154.5 370.5 167.16 377.7 169.5 378.5 173.41 374.5 190.35 378.5 265.5 379.5 283.82 374.02 288.76 377.72 322.5 359.5 347.5 329.5 367.12 307 382.72 315.5 335.5 370.5 303.5 391.5 265.5 401.5 189.52 401.5 152.5 390.5 120.5 369.5 101.95 349.43 74.46 315.96"/><polygon class="cls-5" points="191.28 374.02 266.03 374.5 266.03 369.56 191.28 369.56 191.28 374.02"/><polygon class="cls-3" points="249.15 423.5 229.93 423.5 229.85 434.92 250.7 434.92 249.15 423.5"/><polygon class="cls-3" points="227.93 423.5 207.15 423.5 205.81 434.92 227.85 434.92 227.93 423.5"/><polygon class="cls-3" points="147.24 404.34 136.5 394.43 128.5 402.71 139.23 412.36 147.24 404.34"/><polygon class="cls-3" points="171.02 417.25 148.77 405.64 140.77 413.64 166 427.27 171.02 417.25"/><polygon class="cls-3" points="205.15 423.44 173 417.76 167.87 428.03 203.83 434.61 205.15 423.44"/><polygon class="cls-3" points="400.21 321.46 412.29 307.73 402.79 302.92 390.77 316.68 400.21 321.46"/><polygon class="cls-3" points="413.65 306.18 423.71 294.75 414.77 289.21 404.15 301.37 413.65 306.18"/><polygon class="cls-3" points="385.55 338.12 398.85 323.01 389.42 318.24 376.19 333.38 385.55 338.12"/><polygon class="cls-3" points="370.58 355.14 384.18 339.68 374.83 334.94 361.29 350.44 370.58 355.14"/><polygon class="cls-3" points="356.83 370.76 369.21 356.69 359.93 351.99 352.5 360.5 347.3 365.94 356.83 370.76"/><polygon class="cls-3" points="343.36 386.07 355.47 372.31 345.86 367.45 333.12 380.78 343.36 386.07"/><polygon class="cls-3" points="331.68 382.29 321.46 392.98 331.36 399.72 342 387.62 331.68 382.29"/><polygon class="cls-3" points="320.06 394.44 309.66 405.34 319.62 413.06 330.02 401.23 320.06 394.44"/><polygon class="cls-3" points="307.76 406.4 284.72 418.39 290.16 427.35 317.79 414.18 307.76 406.4"/><polygon class="cls-3" points="282.62 418.78 251.15 423.4 252.7 434.75 288.32 428.18 282.62 418.78"/><polygon class="cls-4" points="28.5 340.42 53.73 326.98 65.73 340.42 34.15 358.76 28.5 340.42"/><polygon class="cls-4" points="35.25 362.5 68.81 344 82 357.5 45.33 379.51 35.25 362.5"/><polygon class="cls-4" points="47.12 382.5 83.42 360.27 96.16 372.03 57.5 395.7 47.12 382.5"/><polygon class="cls-4" points="58.63 399.5 98.37 374.5 110.5 387.5 69.42 412.36 58.63 399.5"/><polygon class="cls-4" points="72.5 415.5 111.5 391.5 122.5 401.5 86.12 429.21 72.5 415.5"/><polygon class="cls-4" points="88.5 431.5 125 403.4 136.5 414.2 105.72 444.09 88.5 431.5"/><polygon class="cls-4" points="107.5 446.5 137.87 416.46 150.5 423.5 125 456.33 107.5 446.5"/><polygon class="cls-4" points="128.5 457.74 152.5 424.5 164.5 429.21 146.5 466.31 128.5 457.74"/><polygon class="cls-4" points="150.5 467.9 167.16 431.65 184.32 434.92 172.5 475.5 150.5 467.9"/><polygon class="cls-4" points="175.5 476.5 199.5 479.5 202.93 438.73 186.51 436.39 175.5 476.5"/><polygon class="cls-4" points="202.93 480.65 227.35 482.35 227.35 438.73 205.81 438.73 202.93 480.65"/><polygon class="cls-3" points="229.85 438.73 251.15 438.73 255.69 482.35 229.85 482.35 229.85 438.73"/><polygon class="cls-3" points="253.49 438.73 269.5 436.39 281.75 475.5 257.5 482.5 253.49 438.73"/><polygon class="cls-3" points="284.04 475.5 307.64 467.34 289.13 431.65 272.34 436.39 284.04 475.5"/><polygon class="cls-3" points="291.5 430.5 302.7 424.5 328.48 457.95 311.01 466.31 291.5 430.5"/><polygon class="cls-3" points="330.02 456.82 349.16 445.4 319.25 416.87 305.5 423.5 330.02 456.82"/><polygon class="cls-3" points="321.46 415.78 331.73 403.75 367.48 429.21 351.5 443.5 321.46 415.78"/><polygon class="cls-3" points="333.12 401.5 344.3 389.67 385.45 413.06 369.21 427.99 333.12 401.5"/><polygon class="cls-3" points="347.3 387.29 359.29 374.5 398.85 396.28 386.5 410.5 347.3 387.29"/><polygon class="cls-3" points="361.29 372.03 371.38 358.76 410.5 380.5 400.21 394.44 361.29 372.03"/><polygon class="cls-3" points="374.5 356.5 387.51 341.85 420.5 360.5 412.29 377.8 374.5 356.5"/><polygon class="cls-3" points="389.5 340.32 402.5 324.5 427.5 338.5 421.75 358.76 389.5 340.32"/><polygon class="cls-3" points="404.15 322.34 426.5 295.5 437.01 300.53 429.21 336.5 404.15 322.34"/><polygon class="cls-5" points="119 176 119 145 186 114 272.22 114 334.83 145 334.83 176 119 176"/><polygon class="cls-3" points="124.09 184.39 332 184.39 332 199.66 267.58 253.11 184.39 253.11 124.09 199.66 124.09 184.39"/><polygon class="cls-5" points="78.34 216.93 82 214.72 108 242 102.99 245 78.34 216.93"/><polygon class="cls-5" points="350 244.08 374.45 215.5 379 218 355 246 350 244.08"/><text class="cls-6" transform="translate(30.16 191.8)">114</text><text class="cls-6" transform="translate(37.16 209.8)">113</text><text class="cls-6" transform="translate(52.16 219.8)">112</text><text class="cls-6" transform="translate(59.16 235.8)">111</text><text class="cls-6" transform="translate(72.16 250.8)">110</text><text class="cls-6" transform="translate(93.16 265.8)">109</text><text class="cls-6" transform="translate(99.16 284.8)">108</text><text class="cls-6" transform="translate(164.16 313.8)">D07</text><text class="cls-7" transform="translate(208.38 219.9)">GROUND</text><text class="cls-6" transform="translate(214.16 149.8)"><tspan class="cls-8">S</tspan><tspan class="cls-9" x="5.75" y="0">T</tspan><tspan class="cls-10" x="11.29" y="0">A</tspan><tspan x="17.25" y="0">GE</tspan></text><text class="cls-6" transform="translate(180.16 327.8)">D06</text><text class="cls-6" transform="translate(197.16 338.8)">D05</text><text class="cls-6" transform="translate(220.16 342.8)">D04</text><text class="cls-6" transform="translate(243.16 340.8)">D03</text><text class="cls-6" transform="translate(259.16 330.8)">D02</text><text class="cls-6" transform="translate(269.16 315.8)">D01</text><text class="cls-6" transform="translate(106.16 321.8)">T17</text><text class="cls-6" transform="translate(118.16 308.8)">T07</text><text class="cls-6" transform="translate(129.16 349.8)">T16</text><text class="cls-6" transform="translate(143.16 338.8)">T06</text><text class="cls-6" transform="translate(172.16 357.8)">T05</text><text class="cls-6" transform="translate(221.16 359.8)">T04</text><text class="cls-6" transform="translate(268.16 356.8)">T03</text><text class="cls-6" transform="translate(298.16 336.8)">T02</text><text class="cls-6" transform="translate(313.16 347.8)">T12</text><text class="cls-6" transform="translate(320.16 309.8)">T01</text><text class="cls-6" transform="translate(409.16 190.8)">101</text><text class="cls-6" transform="translate(418.16 229.8)">201</text><text class="cls-6" transform="translate(407.16 250.8)">202</text><text class="cls-6" transform="translate(395.16 265.8)">203</text><text class="cls-6" transform="translate(378.16 282.8)">204</text><text class="cls-6" transform="translate(363.16 297.8)">205</text><text class="cls-6" transform="translate(403.16 209.8)">102</text><text class="cls-6" transform="translate(391.16 220.8)">103</text><text class="cls-6" transform="translate(381.16 234.8)">104</text><text class="cls-6" transform="translate(367.16 250.8)">105</text><text class="cls-6" transform="translate(350.16 265.8)">106</text><text class="cls-6" transform="translate(339.16 282.8)">107</text><text class="cls-6" transform="translate(337.16 319.8)">T11</text><text class="cls-6" transform="translate(286.16 367.8)">T13</text><text class="cls-6" transform="translate(154.16 367.8)">T15</text><text class="cls-6" transform="translate(21.16 231.8)">210</text><text class="cls-6" transform="translate(32.16 250.8)">209</text><text class="cls-6" transform="translate(47.16 265.8)">208</text><text class="cls-6" transform="translate(62.16 282.8)">207</text><text class="cls-6" transform="translate(77.16 298.8)">206</text><text class="cls-11" transform="translate(25.16 319.8)">424</text><text class="cls-11" transform="translate(37.16 344.8)">423</text><text class="cls-6" transform="translate(37.16 300.8)">323</text><text class="cls-6" transform="translate(49.16 314.8)">321</text><text class="cls-6" transform="translate(64.16 330.8)">320</text><text class="cls-6" transform="translate(77.16 347.8)">319</text><text class="cls-6" transform="translate(93.16 364.8)">318</text><text class="cls-6" transform="translate(106.16 379.8)">317</text><text class="cls-6" transform="translate(118.16 393.8)">316</text><text class="cls-6" transform="translate(133.16 405.8)">315</text><text class="cls-6" transform="translate(148.16 418.8)">314</text><text class="cls-6" transform="translate(181.16 428.8)">313</text><text class="cls-6" transform="translate(210.16 432.8)">312</text><text class="cls-6" transform="translate(233.16 431.8)">311</text><text class="cls-6" transform="translate(262.16 428.8)">310</text><text class="cls-6" transform="translate(293.16 418.8)">309</text><text class="cls-6" transform="translate(311.16 406.8)">308</text><text class="cls-6" transform="translate(324.16 392.8)">307</text><text class="cls-6" transform="translate(337.16 378.8)">306</text><text class="cls-6" transform="translate(350.16 363.8)">305</text><text class="cls-6" transform="translate(365.16 347.8)">304</text><text class="cls-6" transform="translate(378.16 330.8)">303</text><text class="cls-6" transform="translate(394.16 313.8)">302</text><text class="cls-6" transform="translate(406.16 300.8)">301</text><text class="cls-6" transform="translate(417.16 319.8)">401</text><text class="cls-6" transform="translate(403.16 344.8)">402</text><text class="cls-6" transform="translate(392.16 363.8)">403</text><text class="cls-6" transform="translate(378.16 379.8)">404</text><text class="cls-6" transform="translate(363.16 395.8)">405</text><text class="cls-6" transform="translate(349.16 411.8)">406</text><text class="cls-6" transform="translate(336.16 426.8)">407</text><text class="cls-6" transform="translate(320.16 440.8)">408</text><text class="cls-6" transform="translate(302.16 449.8)">409</text><text class="cls-6" transform="translate(282.16 457.8)">410</text><text class="cls-6" transform="translate(258.16 463.8)">411</text><text class="cls-6" transform="translate(234.16 467.8)">412</text><text class="cls-11" transform="translate(207.16 466.8)">413</text><text class="cls-11" transform="translate(184.16 464.8)">414</text><text class="cls-11" transform="translate(159.16 457.8)">415</text><text class="cls-11" transform="translate(139.16 449.8)">416</text><text class="cls-11" transform="translate(122.16 440.8)">417</text><text class="cls-11" transform="translate(105.16 426.8)">418</text><text class="cls-11" transform="translate(92.16 411.8)">419</text><text class="cls-11" transform="translate(77.16 395.8)">420</text><text class="cls-11" transform="translate(61.16 379.8)">421</text><text class="cls-11" transform="translate(49.16 364.8)">422</text></g></svg>